<svg xmlns="http://www.w3.org/2000/svg" width="723" height="15" viewBox="0 0 723 15"><path fill="#D9DEE7" fill-rule="evenodd" d="M26.94 0h6.48a.5.5 0 0 1 .39.812L22.76 14.625a1 1 0 0 1-.78.375H15.5a.5.5 0 0 1-.39-.812L26.16.375A1 1 0 0 1 26.94 0zm240 0h6.48a.5.5 0 0 1 .39.812l-11.05 13.813a1 1 0 0 1-.78.375h-6.48a.5.5 0 0 1-.39-.812L266.16.375a1 1 0 0 1 .78-.375zm239 0h6.48a.5.5 0 0 1 .39.812l-11.05 13.813a1 1 0 0 1-.78.375h-6.48a.5.5 0 0 1-.39-.812L505.16.375a1 1 0 0 1 .78-.375zm-359 0h6.48a.5.5 0 0 1 .39.812l-11.05 13.813a1 1 0 0 1-.78.375h-6.48a.5.5 0 0 1-.39-.812L146.16.375a1 1 0 0 1 .78-.375zm240 0h6.48a.5.5 0 0 1 .39.812l-11.05 13.813a1 1 0 0 1-.78.375h-6.48a.5.5 0 0 1-.39-.812L386.16.375a1 1 0 0 1 .78-.375zm239 0h6.48a.5.5 0 0 1 .39.812l-11.05 13.813a1 1 0 0 1-.78.375h-6.48a.5.5 0 0 1-.39-.812L625.16.375a1 1 0 0 1 .78-.375zm-539 0h6.48a.5.5 0 0 1 .39.812L82.76 14.625a1 1 0 0 1-.78.375H75.5a.5.5 0 0 1-.39-.812L86.16.375A1 1 0 0 1 86.94 0zm240 0h6.48a.5.5 0 0 1 .39.812l-11.05 13.813a1 1 0 0 1-.78.375h-6.48a.5.5 0 0 1-.39-.812L326.16.375a1 1 0 0 1 .78-.375zm239 0h6.48a.5.5 0 0 1 .39.812l-11.05 13.813a1 1 0 0 1-.78.375h-6.48a.5.5 0 0 1-.39-.812L565.16.375a1 1 0 0 1 .78-.375zm-359 0h6.48a.5.5 0 0 1 .39.812l-11.05 13.813a1 1 0 0 1-.78.375h-6.48a.5.5 0 0 1-.39-.812L206.16.375a1 1 0 0 1 .78-.375zm240 0h6.48a.5.5 0 0 1 .39.812l-11.05 13.813a1 1 0 0 1-.78.375h-6.48a.5.5 0 0 1-.39-.812L446.16.375a1 1 0 0 1 .78-.375zm239 0h6.48a.5.5 0 0 1 .39.812l-11.05 13.813a1 1 0 0 1-.78.375h-6.48a.5.5 0 0 1-.39-.812L685.16.375a1 1 0 0 1 .78-.375zm-629 0h6.48a.5.5 0 0 1 .39.812L52.76 14.625a1 1 0 0 1-.78.375H45.5a.5.5 0 0 1-.39-.812L56.16.375A1 1 0 0 1 56.94 0zm240 0h6.48a.5.5 0 0 1 .39.812l-11.05 13.813a1 1 0 0 1-.78.375h-6.48a.5.5 0 0 1-.39-.812L296.16.375a1 1 0 0 1 .78-.375zm239 0h6.48a.5.5 0 0 1 .39.812l-11.05 13.813a1 1 0 0 1-.78.375h-6.48a.5.5 0 0 1-.39-.812L535.16.375a1 1 0 0 1 .78-.375zm-359 0h6.48a.5.5 0 0 1 .39.812l-11.05 13.813a1 1 0 0 1-.78.375h-6.48a.5.5 0 0 1-.39-.812L176.16.375a1 1 0 0 1 .78-.375zm240 0h6.48a.5.5 0 0 1 .39.812l-11.05 13.813a1 1 0 0 1-.78.375h-6.48a.5.5 0 0 1-.39-.812L416.16.375a1 1 0 0 1 .78-.375zm239 0h6.48a.5.5 0 0 1 .39.812l-11.05 13.813a1 1 0 0 1-.78.375h-6.48a.5.5 0 0 1-.39-.812L655.16.375a1 1 0 0 1 .78-.375zm-539 0h6.48a.5.5 0 0 1 .39.812l-11.05 13.813a1 1 0 0 1-.78.375h-6.48a.5.5 0 0 1-.39-.812L116.16.375a1 1 0 0 1 .78-.375zm240 0h6.48a.5.5 0 0 1 .39.812l-11.05 13.813a1 1 0 0 1-.78.375h-6.48a.5.5 0 0 1-.39-.812L356.16.375a1 1 0 0 1 .78-.375zm239 0h6.48a.5.5 0 0 1 .39.812l-11.05 13.813a1 1 0 0 1-.78.375h-6.48a.5.5 0 0 1-.39-.812L595.16.375a1 1 0 0 1 .78-.375zm-359 0h6.48a.5.5 0 0 1 .39.812l-11.05 13.813a1 1 0 0 1-.78.375h-6.48a.5.5 0 0 1-.39-.812L236.16.375a1 1 0 0 1 .78-.375zm240 0h6.48a.5.5 0 0 1 .39.812l-11.05 13.813a1 1 0 0 1-.78.375h-6.48a.5.5 0 0 1-.39-.812L476.16.375a1 1 0 0 1 .78-.375zm239 0h6.48a.5.5 0 0 1 .39.812l-11.05 13.813a1 1 0 0 1-.78.375h-6.48a.5.5 0 0 1-.39-.812L715.16.375a1 1 0 0 1 .78-.375zm-704 0h6.48a.5.5 0 0 1 .39.812L7.76 14.625a1 1 0 0 1-.78.375H.5a.5.5 0 0 1-.39-.812L11.16.375A1 1 0 0 1 11.94 0zm240 0h6.48a.5.5 0 0 1 .39.812l-11.05 13.813a1 1 0 0 1-.78.375h-6.48a.5.5 0 0 1-.39-.812L251.16.375a1 1 0 0 1 .78-.375zm239 0h6.48a.5.5 0 0 1 .39.812l-11.05 13.813a1 1 0 0 1-.78.375h-6.48a.5.5 0 0 1-.39-.812L490.16.375a1 1 0 0 1 .78-.375zm-359 0h6.48a.5.5 0 0 1 .39.812l-11.05 13.813a1 1 0 0 1-.78.375h-6.48a.5.5 0 0 1-.39-.812L131.16.375a1 1 0 0 1 .78-.375zm240 0h6.48a.5.5 0 0 1 .39.812l-11.05 13.813a1 1 0 0 1-.78.375h-6.48a.5.5 0 0 1-.39-.812L371.16.375a1 1 0 0 1 .78-.375zm239 0h6.48a.5.5 0 0 1 .39.812l-11.05 13.813a1 1 0 0 1-.78.375h-6.48a.5.5 0 0 1-.39-.812L610.16.375a1 1 0 0 1 .78-.375zm-539 0h6.48a.5.5 0 0 1 .39.812L67.76 14.625a1 1 0 0 1-.78.375H60.5a.5.5 0 0 1-.39-.812L71.16.375A1 1 0 0 1 71.94 0zm240 0h6.48a.5.5 0 0 1 .39.812l-11.05 13.813a1 1 0 0 1-.78.375h-6.48a.5.5 0 0 1-.39-.812L311.16.375a1 1 0 0 1 .78-.375zm239 0h6.48a.5.5 0 0 1 .39.812l-11.05 13.813a1 1 0 0 1-.78.375h-6.48a.5.5 0 0 1-.39-.812L550.16.375a1 1 0 0 1 .78-.375zm-359 0h6.48a.5.5 0 0 1 .39.812l-11.05 13.813a1 1 0 0 1-.78.375h-6.48a.5.5 0 0 1-.39-.812L191.16.375a1 1 0 0 1 .78-.375zm240 0h6.48a.5.5 0 0 1 .39.812l-11.05 13.813a1 1 0 0 1-.78.375h-6.48a.5.5 0 0 1-.39-.812L431.16.375a1 1 0 0 1 .78-.375zm239 0h6.48a.5.5 0 0 1 .39.812l-11.05 13.813a1 1 0 0 1-.78.375h-6.48a.5.5 0 0 1-.39-.812L670.16.375a1 1 0 0 1 .78-.375zm-629 0h6.48a.5.5 0 0 1 .39.812L37.76 14.625a1 1 0 0 1-.78.375H30.5a.5.5 0 0 1-.39-.812L41.16.375A1 1 0 0 1 41.94 0zm240 0h6.48a.5.5 0 0 1 .39.812l-11.05 13.813a1 1 0 0 1-.78.375h-6.48a.5.5 0 0 1-.39-.812L281.16.375a1 1 0 0 1 .78-.375zm239 0h6.48a.5.5 0 0 1 .39.812l-11.05 13.813a1 1 0 0 1-.78.375h-6.48a.5.5 0 0 1-.39-.812L520.16.375a1 1 0 0 1 .78-.375zm-359 0h6.48a.5.5 0 0 1 .39.812l-11.05 13.813a1 1 0 0 1-.78.375h-6.48a.5.5 0 0 1-.39-.812L161.16.375a1 1 0 0 1 .78-.375zm240 0h6.48a.5.5 0 0 1 .39.812l-11.05 13.813a1 1 0 0 1-.78.375h-6.48a.5.5 0 0 1-.39-.812L401.16.375a1 1 0 0 1 .78-.375zm239 0h6.48a.5.5 0 0 1 .39.812l-11.05 13.813a1 1 0 0 1-.78.375h-6.48a.5.5 0 0 1-.39-.812L640.16.375a1 1 0 0 1 .78-.375zm-539 0h6.48a.5.5 0 0 1 .39.812L97.76 14.625a1 1 0 0 1-.78.375H90.5a.5.5 0 0 1-.39-.812L101.16.375a1 1 0 0 1 .78-.375zm240 0h6.48a.5.5 0 0 1 .39.812l-11.05 13.813a1 1 0 0 1-.78.375h-6.48a.5.5 0 0 1-.39-.812L341.16.375a1 1 0 0 1 .78-.375zm239 0h6.48a.5.5 0 0 1 .39.812l-11.05 13.813a1 1 0 0 1-.78.375h-6.48a.5.5 0 0 1-.39-.812L580.16.375a1 1 0 0 1 .78-.375zm-359 0h6.48a.5.5 0 0 1 .39.812l-11.05 13.813a1 1 0 0 1-.78.375h-6.48a.5.5 0 0 1-.39-.812L221.16.375a1 1 0 0 1 .78-.375zm240 0h6.48a.5.5 0 0 1 .39.812l-11.05 13.813a1 1 0 0 1-.78.375h-6.48a.5.5 0 0 1-.39-.812L461.16.375a1 1 0 0 1 .78-.375zm239 0h6.48a.5.5 0 0 1 .39.812l-11.05 13.813a1 1 0 0 1-.78.375h-6.48a.5.5 0 0 1-.39-.812L700.16.375a1 1 0 0 1 .78-.375z"/></svg>